<svg xmlns="http://www.w3.org/2000/svg" viewBox="0 0 160 160" role="img" aria-label="原田左之助の隊士絵">
  <rect width="160" height="160" rx="16" fill="#f7ecd7"/>
  <circle cx="80" cy="78" r="46" fill="#f0e0d6"/>
  <path d="M43 126c7-26 22-39 37-39s31 13 37 39z" fill="#1d4a3f"/>
  <path d="M58 127h44l-6-36H64z" fill="#48aeb4"/>
  <circle cx="80" cy="78" r="26" fill="#efc29e"/>
  <path d="M50 70c8-26 48-30 60-2-19-5-39-4-60 2z" fill="#181f1f"/>
  <circle cx="70" cy="80" r="3" fill="#111"/>
  <circle cx="91" cy="80" r="3" fill="#111"/>
  <path d="M69 94c8 5 15 5 22 0" fill="none" stroke="#6a3b2f" stroke-width="3" stroke-linecap="round"/>
  <path d="M34 126L128 32" stroke="#5d4530" stroke-width="6" stroke-linecap="round"/>
  <path d="M127 32l-5 18 18-5z" fill="#d79b27"/>
  <path d="M48 106l20 18M112 106l-20 18" stroke="#fff9e9" stroke-width="5" stroke-linecap="round"/>
</svg>
