<svg xmlns="http://www.w3.org/2000/svg" viewBox="0 0 160 160" role="img" aria-label="土方歳三の隊士絵">
  <rect width="160" height="160" rx="16" fill="#f7ecd7"/>
  <circle cx="80" cy="78" r="46" fill="#e8e1d1"/>
  <path d="M44 126c6-27 21-39 36-39s30 12 36 39z" fill="#223a44"/>
  <path d="M58 127h44l-5-36H63z" fill="#17483d"/>
  <circle cx="80" cy="78" r="26" fill="#f1c6a2"/>
  <path d="M52 70c8-28 45-33 58-3-16-2-38-1-58 3z" fill="#141b1b"/>
  <path d="M61 63c14-17 43-9 48 8-21-7-36-5-48-8z" fill="#141b1b"/>
  <circle cx="70" cy="79" r="3" fill="#111"/>
  <circle cx="91" cy="79" r="3" fill="#111"/>
  <path d="M70 94c8 2 13 2 21 0" fill="none" stroke="#6a3b2f" stroke-width="3" stroke-linecap="round"/>
  <rect x="105" y="92" width="28" height="38" rx="4" fill="#fff3d8" stroke="#6d5936" stroke-width="4"/>
  <path d="M111 104h16M111 115h16" stroke="#6d5936" stroke-width="3" stroke-linecap="round"/>
  <path d="M49 106l20 18M111 106l-20 18" stroke="#fff9e9" stroke-width="5" stroke-linecap="round"/>
</svg>
