<svg xmlns="http://www.w3.org/2000/svg" viewBox="0 0 160 160" role="img" aria-label="井上源三郎の隊士絵">
  <rect width="160" height="160" rx="16" fill="#f7ecd7"/>
  <circle cx="80" cy="78" r="46" fill="#e4ead8"/>
  <path d="M43 127c7-26 22-39 37-39s30 13 37 39z" fill="#17483d"/>
  <path d="M58 127h44l-6-35H64z" fill="#48aeb4"/>
  <circle cx="80" cy="79" r="25" fill="#edc09d"/>
  <path d="M52 70c10-24 47-27 57-1-17-5-40-5-57 1z" fill="#202626"/>
  <circle cx="70" cy="80" r="3" fill="#111"/>
  <circle cx="91" cy="80" r="3" fill="#111"/>
  <path d="M69 94c7 4 14 4 22 0" fill="none" stroke="#6a3b2f" stroke-width="3" stroke-linecap="round"/>
  <path d="M47 106l20 18M113 106l-20 18" stroke="#fff9e9" stroke-width="5" stroke-linecap="round"/>
  <rect x="106" y="96" width="30" height="30" rx="8" fill="#fff9e9" stroke="#5a7f24" stroke-width="5"/>
  <path d="M113 111h16M121 103v16" stroke="#5a7f24" stroke-width="4" stroke-linecap="round"/>
</svg>
