<svg xmlns="http://www.w3.org/2000/svg" viewBox="0 0 160 160" role="img" aria-label="伊東甲子太郎の隊士絵">
  <rect width="160" height="160" rx="16" fill="#f7ecd7"/>
  <circle cx="80" cy="78" r="46" fill="#eaddec"/>
  <path d="M42 127c7-27 23-40 38-40s31 13 38 40z" fill="#17483d"/>
  <path d="M57 127h46l-7-37H64z" fill="#48aeb4"/>
  <circle cx="80" cy="78" r="26" fill="#efc5a2"/>
  <path d="M51 70c9-26 50-29 59 0-18-6-41-6-59 0z" fill="#202626"/>
  <circle cx="70" cy="80" r="3" fill="#111"/>
  <circle cx="91" cy="80" r="3" fill="#111"/>
  <path d="M68 94c8 5 16 5 24 0" fill="none" stroke="#6a3b2f" stroke-width="3" stroke-linecap="round"/>
  <path d="M48 106l20 18M112 106l-20 18" stroke="#fff9e9" stroke-width="5" stroke-linecap="round"/>
  <circle cx="118" cy="111" r="16" fill="#fff9e9" stroke="#ac2e65" stroke-width="5"/>
  <path d="M109 111h18M118 102v18" stroke="#ac2e65" stroke-width="4" stroke-linecap="round"/>
  <path d="M42 55c16-13 61-14 77 0" fill="none" stroke="#ac2e65" stroke-width="5" stroke-linecap="round"/>
</svg>
