<svg xmlns="http://www.w3.org/2000/svg" viewBox="0 0 160 160" role="img" aria-label="近藤勇の隊士絵">
  <rect width="160" height="160" rx="16" fill="#f7ecd7"/>
  <circle cx="80" cy="78" r="46" fill="#eadfc8"/>
  <path d="M40 127c8-29 24-42 40-42s32 13 40 42z" fill="#17483d"/>
  <path d="M54 127h52l-8-37H62z" fill="#48aeb4"/>
  <circle cx="80" cy="78" r="28" fill="#efc29f"/>
  <path d="M49 70c8-25 53-31 63 0-19-6-44-6-63 0z" fill="#1b2423"/>
  <circle cx="69" cy="79" r="3" fill="#111"/>
  <circle cx="92" cy="79" r="3" fill="#111"/>
  <path d="M68 95c9 6 16 6 25 0" fill="none" stroke="#6a3b2f" stroke-width="3" stroke-linecap="round"/>
  <path d="M42 55c16-15 59-16 76 0" fill="none" stroke="#d79b27" stroke-width="6" stroke-linecap="round"/>
  <circle cx="118" cy="116" r="15" fill="#fff9e9" stroke="#d79b27" stroke-width="5"/>
  <path d="M48 106l20 18M112 106l-20 18" stroke="#fff9e9" stroke-width="5" stroke-linecap="round"/>
</svg>
