<svg xmlns="http://www.w3.org/2000/svg" viewBox="0 0 160 160" role="img" aria-label="沖田総司の隊士絵">
  <rect width="160" height="160" rx="16" fill="#f7ecd7"/>
  <circle cx="80" cy="78" r="46" fill="#d9eee7"/>
  <path d="M45 126c5-25 21-38 35-38s30 13 35 38z" fill="#1d4a3f"/>
  <path d="M57 127h46l-6-37H63z" fill="#48aeb4"/>
  <path d="M56 86c-5-19 7-40 24-40 19 0 31 19 24 40-10-9-37-9-48 0z" fill="#1b2423"/>
  <circle cx="80" cy="78" r="26" fill="#f2c9a3"/>
  <path d="M54 65c8-24 46-26 55 1-18-4-37-3-55-1z" fill="#1b2423"/>
  <circle cx="70" cy="79" r="3" fill="#111"/>
  <circle cx="91" cy="79" r="3" fill="#111"/>
  <path d="M72 94c6 4 12 4 18 0" fill="none" stroke="#7d4b35" stroke-width="3" stroke-linecap="round"/>
  <path d="M113 42l9 9-55 55-9-9z" fill="#4b5660"/>
  <path d="M117 38l8 8" stroke="#d79b27" stroke-width="4" stroke-linecap="round"/>
  <path d="M49 105l20 18M111 105l-20 18" stroke="#fff9e9" stroke-width="5" stroke-linecap="round"/>
</svg>
