<svg xmlns="http://www.w3.org/2000/svg" viewBox="0 0 160 160" role="img" aria-label="芹沢鴨の隊士絵">
  <rect width="160" height="160" rx="16" fill="#f7ecd7"/>
  <circle cx="80" cy="78" r="46" fill="#ead9cf"/>
  <path d="M38 127c9-31 25-44 42-44s33 13 42 44z" fill="#17483d"/>
  <path d="M53 127h54l-9-39H62z" fill="#48aeb4"/>
  <circle cx="80" cy="78" r="28" fill="#efbd99"/>
  <path d="M48 69c8-28 55-33 64 0-20-7-44-7-64 0z" fill="#151c1b"/>
  <path d="M65 77l9 3M95 77l-9 3" stroke="#111" stroke-width="4" stroke-linecap="round"/>
  <path d="M69 96c8-3 14-3 22 0" fill="none" stroke="#6a3b2f" stroke-width="3" stroke-linecap="round"/>
  <path d="M44 105l22 20M116 105l-22 20" stroke="#fff9e9" stroke-width="5" stroke-linecap="round"/>
  <path d="M119 40l13 13-46 50-11-11z" fill="#b82f32"/>
  <path d="M128 37l7 7" stroke="#d79b27" stroke-width="5" stroke-linecap="round"/>
  <path d="M38 48c18-18 66-20 84 0" fill="none" stroke="#a7282d" stroke-width="6" stroke-linecap="round"/>
</svg>
