<svg xmlns="http://www.w3.org/2000/svg" viewBox="0 0 160 160" role="img" aria-label="武田観柳斎の隊士絵">
  <rect width="160" height="160" rx="16" fill="#f7ecd7"/>
  <circle cx="80" cy="78" r="46" fill="#e5ead4"/>
  <path d="M43 127c7-26 22-39 37-39s30 13 37 39z" fill="#17483d"/>
  <path d="M58 127h44l-6-36H64z" fill="#48aeb4"/>
  <circle cx="80" cy="78" r="25" fill="#efc5a2"/>
  <path d="M52 70c10-24 47-27 57-1-18-5-39-5-57 1z" fill="#202626"/>
  <circle cx="70" cy="80" r="3" fill="#111"/>
  <circle cx="91" cy="80" r="3" fill="#111"/>
  <path d="M69 94c8 4 14 4 22 0" fill="none" stroke="#6a3b2f" stroke-width="3" stroke-linecap="round"/>
  <path d="M48 106l20 18M112 106l-20 18" stroke="#fff9e9" stroke-width="5" stroke-linecap="round"/>
  <rect x="103" y="94" width="36" height="28" rx="5" fill="#fff3d8" stroke="#5a7f24" stroke-width="4"/>
  <path d="M111 104h20M111 113h15" stroke="#5a7f24" stroke-width="3" stroke-linecap="round"/>
  <path d="M43 55c15-12 58-13 74 0" fill="none" stroke="#5a7f24" stroke-width="5" stroke-linecap="round"/>
</svg>
