<svg xmlns="http://www.w3.org/2000/svg" viewBox="0 0 160 160" role="img" aria-label="藤堂平助の隊士絵">
  <rect width="160" height="160" rx="16" fill="#f7ecd7"/>
  <circle cx="80" cy="78" r="46" fill="#e4eff0"/>
  <path d="M40 127c8-29 24-42 40-42s32 13 40 42z" fill="#17483d"/>
  <path d="M55 127h50l-8-37H63z" fill="#48aeb4"/>
  <circle cx="80" cy="78" r="26" fill="#efc29f"/>
  <path d="M50 70c9-26 51-30 60 0-18-6-42-6-60 0z" fill="#1d2322"/>
  <circle cx="70" cy="79" r="3" fill="#111"/>
  <circle cx="91" cy="79" r="3" fill="#111"/>
  <path d="M68 95c9 5 15 5 24 0" fill="none" stroke="#6a3b2f" stroke-width="3" stroke-linecap="round"/>
  <path d="M49 105l19 19M111 105l-19 19" stroke="#fff9e9" stroke-width="5" stroke-linecap="round"/>
  <path d="M116 41l12 12-43 48-10-10z" fill="#2e5f83"/>
  <path d="M126 38l6 6" stroke="#d79b27" stroke-width="5" stroke-linecap="round"/>
  <circle cx="113" cy="116" r="12" fill="#fff9e9" stroke="#ac2e65" stroke-width="5"/>
</svg>
